<mxfile host="app.diagrams.net" modified="2020-05-24T13:51:50.670Z" agent="5.0 (X11; Linux x86_64) AppleWebKit/537.36 (KHTML, like Gecko) Chrome/77.0.3865.120 Safari/537.36" etag="h8BLOxxjySEISPOigJ7k" version="13.1.3" type="github">
  <diagram id="dXdjv0n2jVyO-cPHFP4J" name="Page-1">
    <mxGraphModel dx="2889" dy="1132" grid="1" gridSize="10" guides="1" tooltips="1" connect="1" arrows="1" fold="1" page="1" pageScale="1" pageWidth="827" pageHeight="1169" math="0" shadow="0">
      <root>
        <mxCell id="0" />
        <mxCell id="1" parent="0" />
        <mxCell id="-4Mk8O7G2yA_D8Ajx_66-12" value="" style="ellipse;whiteSpace=wrap;html=1;" vertex="1" parent="1">
          <mxGeometry x="155" y="515" width="510" height="250" as="geometry" />
        </mxCell>
        <mxCell id="-4Mk8O7G2yA_D8Ajx_66-1" value="Culture" style="rounded=0;whiteSpace=wrap;html=1;" vertex="1" parent="1">
          <mxGeometry x="350" y="550" width="120" height="60" as="geometry" />
        </mxCell>
        <mxCell id="-4Mk8O7G2yA_D8Ajx_66-5" value="People" style="rounded=0;whiteSpace=wrap;html=1;" vertex="1" parent="1">
          <mxGeometry x="350" y="680" width="120" height="60" as="geometry" />
        </mxCell>
        <mxCell id="-4Mk8O7G2yA_D8Ajx_66-6" value="Work" style="rounded=0;whiteSpace=wrap;html=1;" vertex="1" parent="1">
          <mxGeometry x="170" y="610" width="120" height="60" as="geometry" />
        </mxCell>
        <mxCell id="-4Mk8O7G2yA_D8Ajx_66-7" value="Structure" style="rounded=0;whiteSpace=wrap;html=1;" vertex="1" parent="1">
          <mxGeometry x="530" y="610" width="120" height="60" as="geometry" />
        </mxCell>
        <mxCell id="-4Mk8O7G2yA_D8Ajx_66-8" value="Input" style="rounded=0;whiteSpace=wrap;html=1;" vertex="1" parent="1">
          <mxGeometry x="-20" y="610" width="120" height="60" as="geometry" />
        </mxCell>
        <mxCell id="-4Mk8O7G2yA_D8Ajx_66-9" value="Output" style="rounded=0;whiteSpace=wrap;html=1;" vertex="1" parent="1">
          <mxGeometry x="720" y="610" width="120" height="60" as="geometry" />
        </mxCell>
        <mxCell id="-4Mk8O7G2yA_D8Ajx_66-14" value="" style="shape=flexArrow;endArrow=classic;html=1;width=17;endSize=8;" edge="1" parent="1">
          <mxGeometry width="50" height="50" relative="1" as="geometry">
            <mxPoint x="104" y="639.5" as="sourcePoint" />
            <mxPoint x="154" y="640" as="targetPoint" />
          </mxGeometry>
        </mxCell>
        <mxCell id="-4Mk8O7G2yA_D8Ajx_66-15" value="" style="shape=flexArrow;endArrow=classic;html=1;width=17;endSize=8;" edge="1" parent="1">
          <mxGeometry width="50" height="50" relative="1" as="geometry">
            <mxPoint x="669" y="639.5" as="sourcePoint" />
            <mxPoint x="719" y="640" as="targetPoint" />
          </mxGeometry>
        </mxCell>
        <mxCell id="-4Mk8O7G2yA_D8Ajx_66-16" value="" style="curved=1;endArrow=classic;html=1;exitX=0.5;exitY=1;exitDx=0;exitDy=0;entryX=0.5;entryY=1;entryDx=0;entryDy=0;" edge="1" parent="1" source="-4Mk8O7G2yA_D8Ajx_66-9" target="-4Mk8O7G2yA_D8Ajx_66-8">
          <mxGeometry width="50" height="50" relative="1" as="geometry">
            <mxPoint x="390" y="890" as="sourcePoint" />
            <mxPoint x="440" y="840" as="targetPoint" />
            <Array as="points">
              <mxPoint x="400" y="970" />
            </Array>
          </mxGeometry>
        </mxCell>
        <mxCell id="-4Mk8O7G2yA_D8Ajx_66-25" value="Continuous Feedback&lt;br&gt;Learning, Adapting" style="edgeLabel;html=1;align=center;verticalAlign=middle;resizable=0;points=[];" vertex="1" connectable="0" parent="-4Mk8O7G2yA_D8Ajx_66-16">
          <mxGeometry x="0.3187" y="-79" relative="1" as="geometry">
            <mxPoint as="offset" />
          </mxGeometry>
        </mxCell>
        <mxCell id="-4Mk8O7G2yA_D8Ajx_66-17" value="" style="endArrow=classic;startArrow=classic;html=1;exitX=0.7;exitY=0;exitDx=0;exitDy=0;exitPerimeter=0;entryX=0;entryY=0.5;entryDx=0;entryDy=0;" edge="1" parent="1" source="-4Mk8O7G2yA_D8Ajx_66-6" target="-4Mk8O7G2yA_D8Ajx_66-1">
          <mxGeometry width="50" height="50" relative="1" as="geometry">
            <mxPoint x="390" y="600" as="sourcePoint" />
            <mxPoint x="340" y="580" as="targetPoint" />
          </mxGeometry>
        </mxCell>
        <mxCell id="-4Mk8O7G2yA_D8Ajx_66-20" value="" style="endArrow=classic;startArrow=classic;html=1;entryX=0.75;entryY=1;entryDx=0;entryDy=0;" edge="1" parent="1" source="-4Mk8O7G2yA_D8Ajx_66-5" target="-4Mk8O7G2yA_D8Ajx_66-6">
          <mxGeometry width="50" height="50" relative="1" as="geometry">
            <mxPoint x="-180" y="860" as="sourcePoint" />
            <mxPoint x="-130" y="810" as="targetPoint" />
          </mxGeometry>
        </mxCell>
        <mxCell id="-4Mk8O7G2yA_D8Ajx_66-21" value="" style="endArrow=classic;startArrow=classic;html=1;entryX=1;entryY=0.5;entryDx=0;entryDy=0;exitX=0.333;exitY=0;exitDx=0;exitDy=0;exitPerimeter=0;" edge="1" parent="1" source="-4Mk8O7G2yA_D8Ajx_66-7" target="-4Mk8O7G2yA_D8Ajx_66-1">
          <mxGeometry width="50" height="50" relative="1" as="geometry">
            <mxPoint x="-90" y="860" as="sourcePoint" />
            <mxPoint x="-40" y="810" as="targetPoint" />
          </mxGeometry>
        </mxCell>
        <mxCell id="-4Mk8O7G2yA_D8Ajx_66-22" value="" style="endArrow=classic;startArrow=classic;html=1;entryX=1;entryY=0.25;entryDx=0;entryDy=0;exitX=0.25;exitY=1;exitDx=0;exitDy=0;" edge="1" parent="1" source="-4Mk8O7G2yA_D8Ajx_66-7" target="-4Mk8O7G2yA_D8Ajx_66-5">
          <mxGeometry width="50" height="50" relative="1" as="geometry">
            <mxPoint x="290" y="960" as="sourcePoint" />
            <mxPoint x="340" y="910" as="targetPoint" />
          </mxGeometry>
        </mxCell>
        <mxCell id="-4Mk8O7G2yA_D8Ajx_66-23" value="" style="endArrow=classic;startArrow=classic;html=1;entryX=0.5;entryY=1;entryDx=0;entryDy=0;" edge="1" parent="1" source="-4Mk8O7G2yA_D8Ajx_66-5" target="-4Mk8O7G2yA_D8Ajx_66-1">
          <mxGeometry width="50" height="50" relative="1" as="geometry">
            <mxPoint x="-160" y="760" as="sourcePoint" />
            <mxPoint x="-110" y="710" as="targetPoint" />
          </mxGeometry>
        </mxCell>
        <mxCell id="-4Mk8O7G2yA_D8Ajx_66-24" value="" style="endArrow=classic;startArrow=classic;html=1;entryX=1;entryY=0.5;entryDx=0;entryDy=0;exitX=0;exitY=0.5;exitDx=0;exitDy=0;" edge="1" parent="1" source="-4Mk8O7G2yA_D8Ajx_66-7" target="-4Mk8O7G2yA_D8Ajx_66-6">
          <mxGeometry width="50" height="50" relative="1" as="geometry">
            <mxPoint x="-20" y="840" as="sourcePoint" />
            <mxPoint x="30" y="790" as="targetPoint" />
          </mxGeometry>
        </mxCell>
      </root>
    </mxGraphModel>
  </diagram>
</mxfile>
